# 3ds Max Wavefront OBJ Exporter v0.97b - (c)2007 guruware
# File Created: 27.03.2013 12:41:48

#
# object Pyramid001
#

v  0.0230 0.3762 0.0777
v  -0.2338 0.2946 0.2715
v  0.0873 0.2620 0.1947
v  0.1922 0.2149 -0.1127
v  0.0521 0.0943 -0.0967
v  -0.1340 0.1241 -0.0793
v  -0.2171 0.2811 -0.0079
v  -0.3146 0.2030 0.1445
v  0.0140 0.0968 0.0666
v  0.0188 0.1133 0.3471
v  -0.1969 0.2971 0.2613
# 11 vertices

vn 0.2238 0.7562 0.6149
vn 0.7734 0.6106 0.1705
vn -0.1438 0.1571 -0.9771
vn -0.0965 -0.0196 -0.9951
vn -0.1698 0.2606 -0.9504
vn -0.1851 0.3238 -0.9278
vn -0.6983 0.5454 -0.4637
vn -0.8894 -0.4561 -0.0315
vn -0.9522 0.0590 -0.2997
vn -0.2179 0.8520 -0.4760
vn -0.2887 -0.9539 0.0824
vn -0.0578 -0.9969 0.0533
vn -0.2578 -0.9643 0.0609
vn -0.1245 -0.9921 -0.0135
vn -0.2390 -0.9691 0.0610
vn -0.3931 -0.1710 0.9035
vn -0.5469 -0.4744 0.6898
vn 0.0503 0.4298 0.9015
vn 0.2500 0.6344 0.7315
vn 0.1978 0.5953 0.7788
vn 0.8864 -0.4393 0.1459
vn 0.9352 -0.3437 0.0850
vn 0.7462 -0.6119 0.2622
vn 0.6380 -0.6981 0.3249
vn -0.3469 0.9356 -0.0658
vn -0.0526 0.7385 -0.6722
# 26 vertex normals

vt 0.5000 1.0000 0.0000
vt 0.0000 0.0000 0.0000
vt 1.0000 0.0000 0.0000
vt 0.0000 0.0000 0.0000
vt 1.0000 0.0000 0.0000
vt 0.0000 1.0000 0.0000
vt 1.0000 1.0000 0.0000
vt 1.0000 0.0000 0.0000
vt 0.0000 0.0000 0.0000
vt 0.5000 0.5000 0.0000
vt 0.5000 1.0000 0.0000
vt 0.2644 0.5288 0.0000
vt 0.7356 0.5288 0.0000
vt 0.7170 0.5659 0.0000
vt 0.2830 0.5659 0.0000
vt 0.7097 0.5807 0.0000
vt 0.2903 0.5807 0.0000
vt 0.3245 0.5337 0.0000
vt 0.6450 0.7100 0.0000
vt 0.3550 0.7100 0.0000
# 20 texture coords

g Pyramid001
f 1/1/1 2/12/1 3/14/1 
f 1/11/2 3/15/2 4/16/2 
f 4/17/3 5/2/4 6/3/5 
f 6/3/5 7/19/6 4/17/3 
f 2/13/7 7/20/8 6/4/9 
f 6/4/9 8/5/10 2/13/7 
f 8/6/11 9/10/12 10/7/13 
f 10/7/13 9/10/12 5/8/14 
f 5/8/14 9/10/12 6/9/15 
f 6/9/15 9/10/12 8/6/11 
f 2/12/16 8/2/17 10/3/18 
f 10/3/18 3/14/19 11/18/20 
f 2/12/16 10/3/18 11/18/20 
f 3/15/21 10/4/22 5/5/23 
f 5/5/23 4/16/24 3/15/21 
f 2/13/25 1/11/25 7/20/25 
f 7/19/26 1/1/26 4/17/26 
# 17 faces

