#Exported from google sketchup
mtllib unit.mtl
v 0.055966 0.000000 0.249461
v 0.055966 0.000000 0.130404
v 0.048129 0.000000 0.189932
v 0.078943 0.000000 0.074932
v 0.078943 0.000000 0.304932
v 0.115495 0.000000 0.027298
v 0.115495 0.000000 0.352567
v 0.163129 0.000000 -0.009253
v 0.163129 0.000000 0.389118
v 0.218601 0.000000 -0.032230
v 0.218601 0.000000 0.412095
v 0.278129 0.000000 -0.040068
v 0.278129 0.000000 0.419932
v 0.337658 0.000000 -0.032230
v 0.337658 0.000000 0.412095
v 0.393129 0.000000 -0.009253
v 0.393129 0.000000 0.389118
v 0.440764 0.000000 0.027298
v 0.440764 0.000000 0.352567
v 0.477315 0.000000 0.074932
v 0.477315 0.000000 0.304932
v 0.500292 0.000000 0.249461
v 0.500292 0.000000 0.130404
v 0.508129 0.000000 0.189932
v 0.500292 0.620000 0.130404
v 0.508129 0.620000 0.189932
v 0.477315 0.620000 0.074932
v 0.440764 0.620000 0.027298
v 0.393129 0.620000 -0.009253
v 0.337658 0.620000 -0.032230
v 0.278129 0.620000 -0.040068
v 0.477315 0.620000 0.304932
v 0.440764 0.620000 0.352567
v 0.500292 0.620000 0.249461
v 0.393129 0.620000 0.389118
v 0.218601 0.620000 -0.032230
v 0.163129 0.620000 -0.009253
v 0.115495 0.620000 0.027298
v 0.078943 0.620000 0.074932
v 0.055966 0.620000 0.130404
v 0.048129 0.620000 0.189932
v 0.055966 0.620000 0.249461
v 0.078943 0.620000 0.304932
v 0.115495 0.620000 0.352567
v 0.163129 0.620000 0.389118
v 0.218601 0.620000 0.412095
v 0.278129 0.620000 0.419932
v 0.337658 0.620000 0.412095
# 48 elements
vt 0.000000 0.000000 0.0000
vt 0.000000 0.000000 0.0000
vt 0.000000 0.000000 0.0000
vt 0.000000 0.000000 0.0000
vt 0.000000 0.000000 0.0000
vt 0.000000 0.000000 0.0000
vt 0.000000 0.000000 0.0000
vt 0.000000 0.000000 0.0000
vt 0.000000 0.000000 0.0000
vt 0.000000 0.000000 0.0000
vt 0.000000 0.000000 0.0000
vt 0.000000 0.000000 0.0000
vt 0.000000 0.000000 0.0000
vt 0.000000 0.000000 0.0000
vt 0.000000 0.000000 0.0000
vt 0.000000 0.000000 0.0000
vt 0.000000 0.000000 0.0000
vt 0.000000 0.000000 0.0000
vt 0.000000 0.000000 0.0000
vt 0.000000 0.000000 0.0000
vt 0.000000 0.000000 0.0000
vt 0.000000 0.000000 0.0000
vt 0.000000 0.000000 0.0000
vt 0.000000 0.000000 0.0000
vt 0.000000 0.000000 0.0000
vt 0.000000 0.000000 0.0000
vt 0.000000 0.000000 0.0000
vt 0.000000 0.000000 0.0000
vt 0.000000 0.000000 0.0000
vt 0.000000 0.000000 0.0000
vt 0.000000 0.000000 0.0000
vt 0.000000 0.000000 0.0000
vt 0.000000 0.000000 0.0000
vt 0.000000 0.000000 0.0000
vt 0.000000 0.000000 0.0000
vt 0.000000 0.000000 0.0000
vt 0.000000 0.000000 0.0000
vt 0.000000 0.000000 0.0000
vt 0.000000 0.000000 0.0000
vt 0.000000 0.000000 0.0000
vt 0.000000 0.000000 0.0000
vt 0.000000 0.000000 0.0000
vt 0.000000 0.000000 0.0000
vt 0.000000 0.000000 0.0000
vt 0.000000 0.000000 0.0000
vt 0.000000 0.000000 0.0000
vt 0.000000 0.000000 0.0000
vt 0.000000 0.000000 0.0000
# 48 elements
vn 0.000000 -1.000000 0.000000
vn 0.000000 1.000000 0.000000
vn 1.000000 0.000000 -0.000000
vn 0.965926 0.000000 -0.258819
vn -0.965926 0.000000 0.258819
vn -1.000000 0.000000 0.000000
vn 0.866025 0.000000 -0.500000
vn -0.866025 0.000000 0.500000
vn 0.707107 0.000000 -0.707107
vn -0.707107 0.000000 0.707107
vn 0.500000 0.000000 -0.866025
vn -0.500000 0.000000 0.866025
vn 0.258819 0.000000 -0.965926
vn -0.000000 0.000000 -1.000000
vn -0.258819 0.000000 0.965926
vn 0.000000 0.000000 1.000000
vn 0.707107 0.000000 0.707107
vn 0.866025 0.000000 0.500000
vn -0.866025 -0.000000 -0.500000
vn -0.707107 -0.000000 -0.707107
vn 0.965926 0.000000 0.258819
vn -0.965926 -0.000000 -0.258819
vn 0.500000 0.000000 0.866025
vn -0.500000 -0.000000 -0.866025
vn -0.258819 0.000000 -0.965926
vn 0.258819 0.000000 0.965926
vn -0.500000 0.000000 -0.866025
vn -0.707107 0.000000 -0.707107
vn -0.866025 0.000000 -0.500000
vn -0.965926 0.000000 -0.258819
vn -0.000000 -1.000000 -0.000000
vn -0.258819 -0.000000 -0.965926
vn -0.000000 -0.000000 -1.000000
# 33 elements
#  184 faces
usemtl Default_Material
f 3/3/1 2/2/1 1/1/1
f 4/4/1 1/1/1 2/2/1
f 5/5/1 1/1/1 4/4/1
f 6/6/1 5/5/1 4/4/1
f 7/7/1 5/5/1 6/6/1
f 8/8/1 7/7/1 6/6/1
f 9/9/1 7/7/1 8/8/1
f 10/10/1 9/9/1 8/8/1
f 11/11/1 9/9/1 10/10/1
f 12/12/1 11/11/1 10/10/1
f 13/13/1 11/11/1 12/12/1
f 14/14/1 13/13/1 12/12/1
f 15/15/1 13/13/1 14/14/1
f 16/16/1 15/15/1 14/14/1
f 17/17/1 15/15/1 16/16/1
f 18/18/1 17/17/1 16/16/1
f 19/19/1 17/17/1 18/18/1
f 20/20/1 19/19/1 18/18/1
f 21/21/1 19/19/1 20/20/1
f 22/22/1 21/21/1 20/20/1
f 23/23/1 22/22/1 20/20/1
f 24/24/1 22/22/1 23/23/1
f 1/1/2 2/2/2 3/3/2
f 2/2/2 1/1/2 4/4/2
f 4/4/2 1/1/2 5/5/2
f 4/4/2 5/5/2 6/6/2
f 6/6/2 5/5/2 7/7/2
f 6/6/2 7/7/2 8/8/2
f 8/8/2 7/7/2 9/9/2
f 8/8/2 9/9/2 10/10/2
f 10/10/2 9/9/2 11/11/2
f 10/10/2 11/11/2 12/12/2
f 12/12/2 11/11/2 13/13/2
f 12/12/2 13/13/2 14/14/2
f 14/14/2 13/13/2 15/15/2
f 14/14/2 15/15/2 16/16/2
f 16/16/2 15/15/2 17/17/2
f 16/16/2 17/17/2 18/18/2
f 18/18/2 17/17/2 19/19/2
f 18/18/2 19/19/2 20/20/2
f 20/20/2 19/19/2 21/21/2
f 20/20/2 21/21/2 22/22/2
f 20/20/2 22/22/2 23/23/2
f 23/23/2 22/22/2 24/24/2
f 23/23/4 25/25/4 24/24/3
f 26/26/3 24/24/3 25/25/4
f 24/24/6 25/25/5 23/23/5
f 25/25/5 24/24/6 26/26/6
f 20/20/7 27/27/7 23/23/4
f 25/25/4 23/23/4 27/27/7
f 23/23/5 27/27/8 20/20/8
f 27/27/8 23/23/5 25/25/5
f 18/18/9 28/28/9 20/20/7
f 27/27/7 20/20/7 28/28/9
f 20/20/8 28/28/10 18/18/10
f 28/28/10 20/20/8 27/27/8
f 18/18/9 16/16/11 28/28/9
f 29/29/11 28/28/9 16/16/11
f 28/28/10 16/16/12 18/18/10
f 16/16/12 28/28/10 29/29/12
f 14/14/13 12/12/14 30/30/13
f 31/31/14 30/30/13 12/12/14
f 30/30/15 12/12/16 14/14/15
f 12/12/16 30/30/15 31/31/16
f 16/16/11 14/14/13 29/29/11
f 30/30/13 29/29/11 14/14/13
f 29/29/12 14/14/15 16/16/12
f 14/14/15 29/29/12 30/30/15
f 21/21/18 32/32/18 19/19/17
f 33/33/17 19/19/17 32/32/18
f 19/19/20 32/32/19 21/21/19
f 32/32/19 19/19/20 33/33/20
f 22/22/21 34/34/21 21/21/18
f 32/32/18 21/21/18 34/34/21
f 21/21/19 34/34/22 22/22/22
f 34/34/22 21/21/19 32/32/19
f 17/17/23 19/19/17 35/35/23
f 33/33/17 35/35/23 19/19/17
f 35/35/24 19/19/20 17/17/24
f 19/19/20 35/35/24 33/33/20
f 12/12/14 10/10/25 31/31/14
f 36/36/25 31/31/14 10/10/25
f 31/31/16 10/10/26 12/12/16
f 10/10/26 31/31/16 36/36/26
f 10/10/25 8/8/27 36/36/25
f 37/37/27 36/36/25 8/8/27
f 36/36/26 8/8/23 10/10/26
f 8/8/23 36/36/26 37/37/23
f 24/24/3 26/26/3 22/22/21
f 34/34/21 22/22/21 26/26/3
f 22/22/22 26/26/6 24/24/6
f 26/26/6 22/22/22 34/34/22
f 8/8/27 6/6/28 37/37/27
f 38/38/28 37/37/27 6/6/28
f 37/37/23 6/6/17 8/8/23
f 6/6/17 37/37/23 38/38/17
f 38/38/28 6/6/28 39/39/29
f 4/4/29 39/39/29 6/6/28
f 39/39/18 6/6/17 38/38/17
f 6/6/17 39/39/18 4/4/18
f 39/39/29 4/4/29 40/40/30
f 2/2/30 40/40/30 4/4/29
f 40/40/21 4/4/18 39/39/18
f 4/4/18 40/40/21 2/2/21
f 40/40/30 2/2/30 41/41/6
f 3/3/6 41/41/6 2/2/30
f 41/41/3 2/2/21 40/40/21
f 2/2/21 41/41/3 3/3/3
f 41/41/6 3/3/6 42/42/5
f 1/1/5 42/42/5 3/3/6
f 42/42/4 3/3/3 41/41/3
f 3/3/3 42/42/4 1/1/4
f 41/41/2 42/42/2 40/40/2
f 39/39/2 40/40/2 42/42/2
f 43/43/2 39/39/2 42/42/2
f 38/38/2 39/39/2 43/43/2
f 44/44/2 38/38/2 43/43/2
f 37/37/2 38/38/2 44/44/2
f 45/45/2 37/37/2 44/44/2
f 36/36/2 37/37/2 45/45/2
f 46/46/2 36/36/2 45/45/2
f 31/31/2 36/36/2 46/46/2
f 47/47/2 31/31/2 46/46/2
f 30/30/2 31/31/2 47/47/2
f 48/48/2 30/30/2 47/47/2
f 29/29/2 30/30/2 48/48/2
f 35/35/2 29/29/2 48/48/2
f 28/28/2 29/29/2 35/35/2
f 33/33/2 28/28/2 35/35/2
f 27/27/2 28/28/2 33/33/2
f 32/32/2 27/27/2 33/33/2
f 25/25/2 27/27/2 32/32/2
f 34/34/2 25/25/2 32/32/2
f 26/26/2 25/25/2 34/34/2
f 40/40/31 42/42/31 41/41/31
f 42/42/31 40/40/31 39/39/31
f 42/42/31 39/39/31 43/43/31
f 43/43/31 39/39/31 38/38/31
f 43/43/31 38/38/31 44/44/31
f 44/44/31 38/38/31 37/37/31
f 44/44/31 37/37/31 45/45/31
f 45/45/31 37/37/31 36/36/31
f 45/45/31 36/36/31 46/46/31
f 46/46/31 36/36/31 31/31/31
f 46/46/31 31/31/31 47/47/31
f 47/47/31 31/31/31 30/30/31
f 47/47/31 30/30/31 48/48/31
f 48/48/31 30/30/31 29/29/31
f 48/48/31 29/29/31 35/35/31
f 35/35/31 29/29/31 28/28/31
f 35/35/31 28/28/31 33/33/31
f 33/33/31 28/28/31 27/27/31
f 33/33/31 27/27/31 32/32/31
f 32/32/31 27/27/31 25/25/31
f 32/32/31 25/25/31 34/34/31
f 34/34/31 25/25/31 26/26/31
f 15/15/26 17/17/23 48/48/26
f 35/35/23 48/48/26 17/17/23
f 48/48/32 17/17/24 15/15/32
f 17/17/24 48/48/32 35/35/24
f 42/42/5 1/1/5 43/43/8
f 5/5/8 43/43/8 1/1/5
f 43/43/7 1/1/4 42/42/4
f 1/1/4 43/43/7 5/5/7
f 43/43/8 5/5/8 44/44/10
f 7/7/10 44/44/10 5/5/8
f 44/44/9 5/5/7 43/43/7
f 5/5/7 44/44/9 7/7/9
f 13/13/16 15/15/26 47/47/16
f 48/48/26 47/47/16 15/15/26
f 47/47/33 15/15/32 13/13/33
f 15/15/32 47/47/33 48/48/32
f 11/11/15 13/13/16 46/46/15
f 47/47/16 46/46/15 13/13/16
f 46/46/13 13/13/33 11/11/13
f 13/13/33 46/46/13 47/47/33
f 9/9/12 11/11/15 45/45/12
f 46/46/15 45/45/12 11/11/15
f 45/45/11 11/11/13 9/9/11
f 11/11/13 45/45/11 46/46/13
f 7/7/10 9/9/12 44/44/10
f 45/45/12 44/44/10 9/9/12
f 44/44/9 9/9/11 7/7/9
f 9/9/11 44/44/9 45/45/11