#Exported from google sketchup
mtllib Untitled.mtl
v 1.510000 0.000000 1.510000
v 0.000000 0.000000 0.000000
v 0.000000 0.000000 1.510000
v 1.510000 0.000000 0.000000
v 1.510000 1.000000 0.000000
v 0.000000 1.000000 0.000000
v 0.755000 1.000000 0.000000
v 0.000000 1.000000 1.510000
v 1.510000 1.000000 1.510000
v 0.755000 1.490000 1.510000
v 0.755000 1.490000 0.000000
v 0.377500 1.245000 0.767051
v 0.562041 1.364769 0.767051
v 0.562041 1.364769 1.057051
v 0.377500 1.245000 1.057051
v 0.377500 1.615000 1.057051
v 0.377500 1.615000 0.767051
v 0.562041 1.615231 1.057051
v 0.562041 1.615231 0.767051
# 19 elements
vt 0.000000 0.000000 0.0000
vt 0.000000 0.000000 0.0000
vt 0.000000 0.000000 0.0000
vt 0.000000 0.000000 0.0000
vt 0.000000 0.000000 0.0000
vt 0.000000 0.000000 0.0000
vt 0.000000 0.000000 0.0000
vt 0.000000 0.000000 0.0000
vt 0.000000 0.000000 0.0000
vt 0.000000 0.000000 0.0000
vt 0.000000 0.000000 0.0000
vt 0.000000 0.000000 0.0000
vt 0.000000 0.000000 0.0000
vt 0.000000 0.000000 0.0000
vt 0.000000 0.000000 0.0000
vt 0.000000 0.000000 0.0000
vt 0.000000 0.000000 0.0000
vt 0.000000 0.000000 0.0000
vt 0.000000 0.000000 0.0000
# 19 elements
vn 0.000000 -1.000000 0.000000
vn 0.000000 1.000000 0.000000
vn -0.000000 -0.000000 -1.000000
vn 0.000000 0.000000 1.000000
vn -1.000000 0.000000 0.000000
vn 1.000000 0.000000 0.000000
vn 0.000000 0.000000 -1.000000
vn -0.544402 0.838824 0.000000
vn 0.544402 -0.838824 0.000000
vn -0.000000 -1.000000 -0.000000
vn -1.000000 -0.000000 -0.000000
vn 0.544402 0.838824 0.000000
vn -0.544402 -0.838824 0.000000
vn 0.544402 -0.838824 -0.000000
vn -0.001254 0.999999 0.000000
vn 0.001254 -0.999999 0.000000
# 16 elements
#  78 faces
usemtl Default_Material
f 3/3/1 2/2/1 1/1/1
f 4/4/1 1/1/1 2/2/1
f 1/1/2 2/2/2 3/3/2
f 2/2/2 1/1/2 4/4/2
f 4/4/3 2/2/3 5/5/3
f 6/6/3 5/5/3 2/2/3
f 7/7/3 5/5/3 6/6/3
f 5/5/4 2/2/4 4/4/4
f 2/2/4 5/5/4 6/6/4
f 6/6/4 5/5/4 7/7/4
f 6/6/5 2/2/5 8/8/5
f 3/3/5 8/8/5 2/2/5
f 8/8/6 2/2/6 6/6/6
f 2/2/6 8/8/6 3/3/6
f 3/3/4 1/1/4 8/8/4
f 9/9/4 8/8/4 1/1/4
f 8/8/7 1/1/7 3/3/7
f 1/1/7 8/8/7 9/9/7
f 8/8/4 9/9/4 10/10/4
f 10/10/7 9/9/7 8/8/7
f 6/6/8 8/8/8 11/11/8
f 12/12/8 11/11/8 8/8/8
f 13/13/8 11/11/8 12/12/8
f 14/14/8 11/11/8 13/13/8
f 10/10/8 15/15/8 8/8/8
f 12/12/8 8/8/8 15/15/8
f 14/14/8 15/15/8 10/10/8
f 11/11/8 14/14/8 10/10/8
f 11/11/9 8/8/9 6/6/9
f 8/8/9 11/11/9 12/12/9
f 12/12/9 11/11/9 13/13/9
f 13/13/9 11/11/9 14/14/9
f 8/8/9 15/15/9 10/10/9
f 15/15/9 8/8/9 12/12/9
f 10/10/9 15/15/9 14/14/9
f 10/10/9 14/14/9 11/11/9
f 6/6/2 8/8/2 7/7/2
f 9/9/2 7/7/2 8/8/2
f 5/5/2 7/7/2 9/9/2
f 7/7/10 8/8/10 6/6/10
f 8/8/10 7/7/10 9/9/10
f 9/9/10 7/7/10 5/5/10
f 4/4/6 5/5/6 1/1/6
f 9/9/6 1/1/6 5/5/6
f 1/1/11 5/5/11 4/4/11
f 5/5/11 1/1/11 9/9/11
f 11/11/12 10/10/12 5/5/12
f 9/9/12 5/5/12 10/10/12
f 5/5/13 10/10/13 11/11/13
f 10/10/13 5/5/13 9/9/13
f 5/5/7 7/7/7 11/11/7
f 11/11/4 7/7/4 5/5/4
f 7/7/7 6/6/7 11/11/7
f 11/11/4 6/6/4 7/7/4
f 12/12/8 15/15/8 13/13/8
f 14/14/8 13/13/8 15/15/8
f 13/13/14 15/15/14 12/12/14
f 15/15/14 13/13/14 14/14/14
f 17/17/5 12/12/5 16/16/5
f 15/15/5 16/16/5 12/12/5
f 16/16/6 12/12/6 17/17/6
f 12/12/6 16/16/6 15/15/6
f 15/15/4 14/14/4 16/16/4
f 18/18/4 16/16/4 14/14/4
f 16/16/7 14/14/7 15/15/7
f 14/14/7 16/16/7 18/18/7
f 13/13/6 19/19/6 14/14/6
f 18/18/6 14/14/6 19/19/6
f 14/14/5 19/19/5 13/13/5
f 19/19/5 14/14/5 18/18/5
f 12/12/7 17/17/7 13/13/7
f 19/19/7 13/13/7 17/17/7
f 13/13/4 17/17/4 12/12/4
f 17/17/4 13/13/4 19/19/4
f 17/17/15 16/16/15 19/19/15
f 18/18/15 19/19/15 16/16/15
f 19/19/16 16/16/16 17/17/16
f 16/16/16 19/19/16 18/18/16